<?xml version="1.0" encoding="iso-8859-1"?>
<!-- Generator: Adobe Illustrator 18.0.0, SVG Export Plug-In . SVG Version: 6.00 Build 0)  -->
<!DOCTYPE svg PUBLIC "-//W3C//DTD SVG 1.1//EN" "http://www.w3.org/Graphics/SVG/1.1/DTD/svg11.dtd">
<svg version="1.1" id="Capa_1" xmlns="http://www.w3.org/2000/svg" xmlns:xlink="http://www.w3.org/1999/xlink" x="0px" y="0px"
	 viewBox="0 0 434.201 434.201" style="enable-background:new 0 0 434.201 434.201;" xml:space="preserve">
<path d="M313.213,118.146c-2.456-20.633-9.662-30.257-26.589-35.511c-14.268-4.428-19.473-9.858-19.892-20.75
	c-0.003-0.079-0.023-0.152-0.032-0.229c0.418-0.648,0.829-1.312,1.225-2.011c4.357-7.692,6.857-17.728,6.857-27.533
	C274.782,12.905,264.384,0,248.906,0c-15.478,0-25.877,12.905-25.877,32.111c0,9.733,2.683,19.792,7.36,27.597
	c0.22,0.367,0.446,0.716,0.672,1.069c0.017,0.433,0.029,0.819,0.018,1.108c-0.419,10.892-5.624,16.322-19.892,20.75
	c-16.927,5.253-24.133,14.877-26.59,35.511c-2.252,18.921-1.196,52.422,4.358,57.976c1.686,1.686,3.838,2.512,6.21,2.512
	c3.349,0,7.135-1.647,10.662-4.843c1.482-1.343,2.886-2.415,4.268-3.277c0.836,13.539-0.726,27.519-6.283,31.56
	c-4.222,3.071-10.678,4.209-18.851,5.649c-11.201,1.975-25.142,4.432-40.842,13.154c-19.252,10.696-23.353,23.422-24.084,30.056
	c-0.816,7.407,1.632,14.439,6.548,18.809c2.918,2.594,10.089,5.713,38.541,2.868c19.824-1.982,38.927-5.746,41.04-6.168
	c7.806-1.561,13.661-1.107,16.932,1.311c2.028,1.5,3.171,3.805,3.496,7.048c0.387,3.836,1.528,8.896,3.393,15.038
	c0.32,1.057,0.895,1.949,1.632,2.648c-0.296,1.473-2.862,14.938-1.339,24.636c0.503,3.207,0.496,6.631-0.02,10.179
	c-2.256,15.488-2.614,48.379-2.671,58.092c-0.009,1.513-0.411,3.008-1.163,4.324c-1.906,3.336-2.749,7.123-2.438,10.951
	l2.181,26.897c0.176,2.176,1.309,4.132,3.11,5.367c1.218,0.835,2.634,1.267,4.071,1.267c0.688,0,1.38-0.099,2.058-0.299l7.605-2.254
	c4.481-1.328,8.197-4.514,10.193-8.74c1.997-4.227,2.097-9.12,0.275-13.425l-2.755-6.51c-1.333-3.151-1.609-6.575-0.8-9.901
	c1.141-4.685,2.413-9.555,3.76-14.712c5.247-20.087,11.194-42.854,11.332-63.118c0.041-6.059,1.213-12.123,3.484-18.025
	c9.212-23.934,19.075-66.098,19.075-90.716c0-15.404-0.844-28.317-1.637-37.052c0.263,0.161,0.527,0.331,0.787,0.474
	c1.7,0.938,3.42,2.204,5.257,3.869c3.527,3.196,7.313,4.842,10.661,4.842c2.372,0,4.525-0.826,6.211-2.512
	C314.41,170.567,315.466,137.066,313.213,118.146z M229.029,32.111C229.029,16.25,236.831,6,248.906,6
	c12.074,0,19.876,10.25,19.876,26.111c0,18.259-9.251,34.889-19.409,34.889C238.916,67,229.029,50.045,229.029,32.111z
	 M246.615,122.63c0.503-0.76,2.287-2.842,2.287-2.842s1.821,2.13,2.335,2.908c0.308,0.467,0.611,1.137,1.033,1.909
	c4.227,7.725,15.981,28.288,27.099,39.44c0.741,6.734,1.808,18.731,2.118,33.945c-24.091,3.489-57.076-8.472-65.598-11.789
	c0.757-7.62,0.318-15.269-0.084-19.688c11.814-10.249,25.12-33.479,29.739-41.908C245.983,123.805,246.296,123.112,246.615,122.63z
	 M226.665,262.93c-4.737-3.503-12.031-4.301-21.677-2.372c-26.24,5.248-68.038,10.371-74.419,4.7
	c-3.466-3.081-5.174-8.189-4.571-13.667c0.604-5.483,4.141-16.083,21.035-25.468c13.095-7.275,25.071-9.964,35.105-11.799
	c10.619,6.574,26.935,20.142,34.675,26.731c-8.826,0.916-42.047,4.897-61.937,14.664c-1.487,0.73-2.101,2.528-1.371,4.015
	c0.73,1.487,2.527,2.101,4.015,1.371c17.338-8.514,46.569-12.389,57.59-13.819c5.25-0.681,9-1.899,9-1.899l13.499-4.446
	c1.16-0.379,2.361-0.147,3.295,0.639c0.934,0.786,1.368,1.929,1.192,3.136l-6.313,43.37c-0.023,0.013-0.079,0.015-0.057,0.014
	c-1.753-5.773-2.817-10.45-3.165-13.897C232.068,269.251,230.083,265.458,226.665,262.93z M262.902,295.061
	c-2.532,6.58-3.839,13.357-3.885,20.14c-0.133,19.513-5.98,41.895-11.138,61.642c-1.354,5.182-2.632,10.076-3.784,14.809
	c-1.116,4.587-0.734,9.31,1.104,13.657l2.755,6.511c1.156,2.734,1.093,5.841-0.175,8.525c-1.268,2.684-3.627,4.707-6.474,5.55
	l-7.604,2.254c-0.482,0.145-0.854-0.04-1.031-0.163c-0.179-0.122-0.483-0.402-0.523-0.903l-2.181-26.898
	c-0.213-2.618,0.364-5.208,1.667-7.489c1.264-2.211,1.939-4.724,1.954-7.267c0.056-9.614,0.408-42.157,2.608-57.263
	c0.602-4.144,0.606-8.171,0.01-11.973c-1.309-8.329,0.918-20.566,1.262-22.361c2.224-0.647,3.862-2.472,4.217-4.878l3.811-26.034
	c11.08,2.856,21.014,3.678,26.253,3.911C268.962,277.448,265.876,287.336,262.902,295.061z M273.262,260.882
	c-4.524-0.15-15.16-0.843-26.89-3.936l1.664-11.364c0.475-3.261-0.746-6.473-3.267-8.594c-2.521-2.12-5.892-2.774-9.03-1.748
	l-11.91,3.922c-4.635-4.012-20.55-17.62-33.138-26.376c6.596-1.247,12.307-2.701,16.651-5.86c4.095-2.978,6.405-8.486,7.651-14.629
	c9.144,3.513,34.351,12.329,57.004,12.329c3.262,0,6.469-0.191,9.57-0.599c0.005,0.82,0.011,1.637,0.011,2.472
	C281.577,220.686,278.018,241.527,273.262,260.882z M304.613,171.878c-1.793,1.794-5.771,0.032-8.601-2.534
	c-2.186-1.98-4.274-3.51-6.386-4.676c-10.227-5.645-25.617-30.819-33.095-44.796c-0.189-0.355-0.412-0.694-0.663-1.005l-3.964-4.925
	V93.246c2.054,5.913,4.128,12.397,5.232,17.317c0.689,3.071,2.634,5.767,5.338,7.395c20.088,12.096,38.796,33.777,38.982,33.995
	c1.08,1.258,2.973,1.402,4.23,0.325c1.258-1.079,1.403-2.972,0.325-4.23c-0.44-0.514-6.511-7.552-15.443-15.858
	c-1.302-8.802,1.569-22.42,1.599-22.562c0.347-1.62-0.686-3.214-2.306-3.561c-1.624-0.347-3.215,0.685-3.561,2.305
	c-0.106,0.493-2.007,9.507-2.063,18.166c-5.673-4.853-12.06-9.74-18.668-13.719c-1.326-0.799-2.242-2.066-2.579-3.568
	c-2.76-12.302-10.95-32.983-11.298-33.857c-0.531-1.338-1.947-2.11-3.352-1.839c-1.02,0.196-1.829,0.897-2.205,1.81
	c-0.005,0.01-0.016,0.018-0.02,0.029c-0.348,0.874-8.539,21.558-11.299,33.86c-0.336,1.501-1.251,2.766-2.576,3.564
	c-6.609,3.979-12.996,8.867-18.67,13.72c-0.055-8.659-1.956-17.672-2.062-18.166c-0.347-1.62-1.939-2.654-3.562-2.305
	c-1.62,0.347-2.652,1.942-2.305,3.562c0.031,0.141,2.904,13.743,1.6,22.56c-8.932,8.307-15.003,15.345-15.444,15.859
	c-1.078,1.258-0.933,3.152,0.326,4.23c1.257,1.078,3.151,0.933,4.23-0.326c0.186-0.217,18.872-21.886,38.982-33.995
	c2.703-1.627,4.648-4.321,5.337-7.391c1.103-4.919,3.178-11.404,5.231-17.319v20.696l-3.963,4.924
	c-0.252,0.313-0.476,0.651-0.66,0.998c-7.481,13.985-22.872,39.159-33.099,44.804c-2.112,1.167-4.201,2.696-6.385,4.676
	c-2.832,2.566-6.808,4.326-8.583,2.553c-2.221-2.597-5.564-28.649-2.66-53.043c2.446-20.543,9.763-26.565,22.41-30.489
	c10.769-3.342,20.887-8.279,23.489-20.996c3.937,3.67,8.351,5.631,12.918,5.631c4.285,0,8.385-1.746,12.039-5.022
	c1.656,7.833,6.966,15.277,23.433,20.388c12.647,3.925,19.965,9.946,22.411,30.489C310.159,143.249,306.817,169.301,304.613,171.878
	z"/>
<g>
</g>
<g>
</g>
<g>
</g>
<g>
</g>
<g>
</g>
<g>
</g>
<g>
</g>
<g>
</g>
<g>
</g>
<g>
</g>
<g>
</g>
<g>
</g>
<g>
</g>
<g>
</g>
<g>
</g>
</svg>
