<?xml version="1.0" encoding="iso-8859-1"?>
<!-- Generator: Adobe Illustrator 18.0.0, SVG Export Plug-In . SVG Version: 6.00 Build 0)  -->
<!DOCTYPE svg PUBLIC "-//W3C//DTD SVG 1.1//EN" "http://www.w3.org/Graphics/SVG/1.1/DTD/svg11.dtd">
<svg version="1.1" id="Capa_1" xmlns="http://www.w3.org/2000/svg" xmlns:xlink="http://www.w3.org/1999/xlink" x="0px" y="0px"
	 viewBox="0 0 481.165 481.165" style="enable-background:new 0 0 481.165 481.165;" xml:space="preserve">
<path d="M481.163,109.105c0.077-1.949-1.625-3.379-3.443-3.109l-25.937,3.886c-2.006,0.301-4.056-0.025-5.87-0.932l-0.762-0.381
	c-1.289-0.644-2.852-0.282-3.725,0.861l-11.505,15.044c-4.786,2.445-40.357,19.735-88.231,19.736c-3.163,0-6.36-0.076-9.506-0.227
	c-0.048-0.002-0.095-0.003-0.143-0.003c-11.918,0-28.233,5.854-37.982,9.351c-1.985,0.712-3.718,1.334-5.107,1.798
	c-7.476,2.491-27.353,6.258-40.277,6.258c-11.681,0-21.309-3.214-31.216-10.42c-4.651-3.382-10.977-5.098-18.8-5.098
	c-7.465,0-16.071,1.632-23.724,4.486c-4.886-0.324-11.458-0.51-18.181-0.51c-7.87,0-22.752,0.253-34.001,1.946
	c-1.426,0.217-2.882,0.12-4.251-0.276c-5.427-1.57-13.916-3.657-24.939-3.657c-12.433,0-25.56,2.541-40.131,7.769
	c-4.406,1.582-9.208,1.66-13.491,0.211c-2.047-0.692-4.242-1.338-6.523-1.92c-1.06-0.27-2.147-0.406-3.236-0.406
	c-4.539,0-8.689,2.306-11.101,6.168c-3.128,5.011-9.435,14.207-16.521,19.493c-2.222,1.657-3.098,4.442-2.231,7.096
	c0.854,2.616,3.17,4.323,5.9,4.351l0.199,0.001c6.012,0,14.665-2.727,25.718-8.105c8.023-3.903,16.934-5.967,25.765-5.967h52.126
	c2.292,0,4.493,0.739,6.364,2.138c7.771,5.811,25.578,16.08,58.326,20.469c2.149,9.951,11.436,51.748,19.62,70.258
	c-0.896,25.166,2.464,40.707,13.189,61.265c7.201,13.803,8.664,26.419,8.895,32.713c0.173,4.66,3.648,8.42,8.263,8.94
	c9.516,1.071,27.204,2.87,38.754,2.87c0.001,0,0.001,0,0.001,0c4.656,0,7.896-0.293,9.906-0.895
	c3.924-1.178,4.396-3.977,4.416-5.125c0.13-7.229-15.184-15.698-26.099-19.404c-5.157-1.751-9.27-5.369-11.582-10.187
	c-7.122-14.841-15.284-36.485-16.831-52.726c-0.634-6.658,0.642-17.472,1.991-28.919c2.211-18.75,4.678-39.669,0.878-54.533
	c1.95,0.84,3.93,1.754,5.966,2.694c10.352,4.777,22.083,10.192,38.906,10.192c4.74,0,9.728-0.442,14.824-1.316
	c26.99-4.626,39.687-22.088,43.771-29.082c0.479-0.82,1.521-2.248,1.521-2.248c-0.988,6.465-1.014,15.185,5.079,18.231
	c4.304,2.151,13.529,4.329,22.836,4.329c7.737,0,18.445-1.484,25.517-8.557c11.304-11.303,16.256-19.453,12.576-33.208
	c13.122-4.905,41.142-19.472,45.672-21.84l8.932-0.524c4.893-0.289,8.947-4.02,9.642-8.873l1.148-8.042
	c0.576-4.029-1.255-7.961-4.609-10.139l20.579-3.083C479.93,111.731,481.105,110.56,481.163,109.105z M175.171,156.386
	c0.439,0.031,0.879-0.034,1.291-0.192c1.061-0.408,2.147-0.782,3.243-1.137c-0.824,0.925-1.604,1.898-2.304,2.956
	c-7.511,11.357-5.636,27.242-4.11,34.877c-2.826-0.413-5.536-0.87-8.122-1.367c-3.18-11.678,0.197-29.289,1.591-35.535
	C169.895,156.081,172.771,156.215,175.171,156.386z M110.037,170.55H57.911c-9.735,0-19.553,2.272-28.39,6.572
	c-10.084,4.905-18.069,7.499-23.093,7.499l-0.14-0.001c-0.088-0.001-0.188-0.002-0.257-0.213c-0.088-0.271,0.055-0.379,0.116-0.425
	c7.478-5.578,13.929-14.566,18.022-21.124c1.308-2.096,3.555-3.346,6.011-3.346c0.589,0,1.179,0.074,1.755,0.221
	c2.134,0.544,4.18,1.146,6.082,1.789c5.561,1.88,11.764,1.789,17.439-0.246c13.911-4.991,26.375-7.417,38.106-7.417
	c10.262,0,18.196,1.952,23.271,3.421c2.196,0.636,4.533,0.791,6.812,0.446c7.935-1.194,20.002-1.88,33.108-1.88
	c1.306,0,2.599,0.009,3.88,0.023c-1.492,6.935-4.162,22.203-1.921,34.282c-21.816-5.085-33.946-12.7-38.72-16.27
	C117.076,171.702,113.634,170.55,110.037,170.55z M234.682,342.186c2.973,6.193,8.462,11.031,15.063,13.272
	c11.843,4.021,20.34,10.411,21.816,13.121c-0.852,0.242-3.005,0.622-8.109,0.622c0,0-0.001,0-0.002,0
	c-11.257,0-28.691-1.774-38.082-2.833c-1.641-0.185-2.877-1.53-2.938-3.199c-0.25-6.798-1.826-20.419-9.571-35.267
	c-10.275-19.692-13.427-34.571-12.488-58.962c0.018-0.467-0.073-0.932-0.267-1.357c-5.327-11.719-11.367-34.845-15.393-51.686
	c14.083,4.013,30.658,4.579,37.352,4.63c0.179,11.706-1.393,25.049-2.768,36.714c-1.448,12.286-2.699,22.896-2.005,30.19
	C218.909,304.459,227.337,326.881,234.682,342.186z M223.245,195.839l-6.477-11.264c-0.825-1.437-2.66-1.934-4.096-1.105
	c-1.437,0.826-1.932,2.659-1.105,4.096l6.937,12.064c1.84,4.058,2.846,9.175,3.29,14.888c-7.155-0.087-25.133-0.786-38.676-5.395
	c-1.804-7.805-2.93-13.123-2.964-13.288c-0.01-0.047-0.028-0.09-0.04-0.136c-0.008-0.031-0.008-0.062-0.018-0.093
	c-0.063-0.213-6.175-21.45,2.312-34.28c3.518-5.32,9.231-8.489,16.97-9.435c6.107,0.1,11.135,1.445,14.553,3.931
	c3.339,2.429,6.653,4.443,10.012,6.079c1.739,4.713,8.288,23.803,5.359,36.359C227.284,197.373,225.275,196.559,223.245,195.839z
	 M380.308,193.415c-5.619,5.619-14.671,6.799-21.274,6.799c-8.287,0-16.568-1.904-20.152-3.696
	c-3.042-1.521-2.503-10.077-0.891-16.538l53.381-13.795C394.207,176.951,390.677,183.047,380.308,193.415z M456.58,124.321
	l-1.148,8.042c-0.292,2.041-1.998,3.61-4.055,3.731l-9.575,0.563c-0.426,0.025-0.841,0.141-1.219,0.339
	c-0.364,0.191-36.437,19.1-47.994,22.677l-81.453,21.05c-1.604,0.414-2.568,2.051-2.153,3.655c0.35,1.353,1.567,2.25,2.902,2.25
	c0.248,0,0.501-0.031,0.753-0.097l11.317-2.925c-4.015,6.483-15.626,21.432-39.142,25.463c-4.763,0.816-9.409,1.23-13.811,1.23
	c-15.384,0-26.426-5.042-36.16-9.534c3.155-11.525-0.8-27.291-3.546-35.928c5.454,1.725,11.151,2.55,17.379,2.55
	c13.719,0,34.142-3.889,42.175-6.566c1.425-0.475,3.201-1.111,5.236-1.842c9.361-3.358,25.015-8.974,35.886-8.998
	c3.217,0.152,6.486,0.23,9.719,0.23c52.856-0.002,90.083-19.9,91.642-20.748c0.37-0.201,0.694-0.479,0.95-0.814l10.404-13.604
	l9.53,4.766C455.896,120.65,456.846,122.463,456.58,124.321z"/>
<g>
</g>
<g>
</g>
<g>
</g>
<g>
</g>
<g>
</g>
<g>
</g>
<g>
</g>
<g>
</g>
<g>
</g>
<g>
</g>
<g>
</g>
<g>
</g>
<g>
</g>
<g>
</g>
<g>
</g>
</svg>
