<svg xmlns="http://www.w3.org/2000/svg" width="100" height="100" viewBox="0 0 50 50">
    <path style="line-height:normal;text-indent:0;text-align:start;text-decoration-line:none;text-decoration-style:solid;text-decoration-color:#000;text-transform:none;block-progression:tb;isolation:auto;mix-blend-mode:normal" d="M 10.40625 0 C 4.6868306 0 0 4.6875609 0 10.404297 L 0 39.595703 C 0 45.312439 4.6868306 50 10.40625 50 L 39.591797 50 C 45.312111 50 50 45.312439 50 39.595703 L 50 10.404297 C 50 4.6875609 45.313169 0 39.59375 0 L 10.40625 0 z M 10.40625 2 L 39.59375 2 C 44.222331 2 48 5.7790326 48 10.404297 L 48 39.595703 C 48 44.220967 44.221483 48 39.591797 48 L 10.40625 48 C 5.7776694 48 2 44.220967 2 39.595703 L 2 10.404297 C 2 5.7790326 5.7776694 2 10.40625 2 z M 23.042969 14.994141 C 21.764798 14.995112 20.642128 15.069278 19.685547 15.527344 A 1.0001 1.0001 0 0 0 19.683594 15.529297 C 19.222659 15.751053 18.886792 16.04267 18.626953 16.378906 C 18.497034 16.547025 18.36675 16.6967 18.298828 17.0625 C 18.264868 17.2454 18.250128 17.540264 18.439453 17.849609 C 18.628782 18.158954 18.996642 18.328397 19.232422 18.359375 C 19.458074 18.388755 19.971384 18.576834 20.070312 18.708984 A 1.0001 1.0001 0 0 0 20.070312 18.710938 C 20.113103 18.767827 20.276659 19.225681 20.328125 19.630859 C 20.379595 20.036037 20.376953 20.363281 20.376953 20.363281 A 1.0001 1.0001 0 0 0 20.378906 20.445312 C 20.378906 20.445312 20.449474 21.483302 20.402344 22.558594 C 20.378784 23.09624 20.320694 23.64102 20.232422 24.015625 C 20.190862 24.192006 20.248747 24.114685 20.216797 24.171875 C 20.154007 24.127315 20.151797 24.141215 20.046875 24.037109 C 19.598835 23.59257 18.866388 22.588973 17.869141 20.902344 C 16.88137 19.230733 16.109375 17.328125 16.109375 17.328125 A 1.0001 1.0001 0 0 0 16.107422 17.324219 C 16.107422 17.324219 15.9605 16.767128 15.341797 16.324219 C 14.753999 15.903563 14.166016 15.830078 14.166016 15.830078 A 1.0001 1.0001 0 0 0 13.972656 15.8125 L 9.1679688 15.814453 C 9.1679688 15.814453 8.9012724 15.798777 8.5820312 15.841797 C 8.2627902 15.884817 7.8002032 15.921987 7.359375 16.431641 A 1.0001 1.0001 0 0 0 7.3554688 16.435547 C 6.9623317 16.894964 6.9808632 17.419648 7.03125 17.720703 C 7.0816368 18.021758 7.1953125 18.25 7.1953125 18.25 C 7.2015625 18.26358 11.069636 26.663515 15.480469 31.380859 C 18.650623 34.77189 21.872115 35.001953 24.646484 35.001953 L 26.679688 35.001953 C 27.179875 35.001953 27.613872 34.975763 28.072266 34.714844 C 28.53066 34.453921 28.841797 33.818873 28.841797 33.357422 C 28.841797 32.79682 28.906627 32.284498 29.021484 31.978516 C 29.126862 31.69779 29.199924 31.624492 29.369141 31.564453 C 29.390606 31.575059 29.439609 31.596314 29.546875 31.669922 C 29.776009 31.827162 30.115527 32.153798 30.482422 32.552734 C 31.215935 33.350306 32.042112 34.424142 33.103516 35.136719 C 33.870953 35.653125 34.586581 35.875936 35.125 35.957031 C 35.663419 36.038131 36.113281 35.964844 36.113281 35.964844 L 35.9375 35.982422 L 40.480469 35.921875 A 1.0001 1.0001 0 0 0 40.527344 35.919922 C 40.527344 35.919922 41.269717 35.921222 42.017578 35.484375 C 42.391509 35.265957 42.825804 34.860692 42.96875 34.257812 C 43.111696 33.654933 42.9338 33.017909 42.566406 32.421875 C 42.613706 32.498735 42.502666 32.301628 42.376953 32.101562 C 42.250331 31.90006 42.065646 31.629455 41.798828 31.289062 C 41.265193 30.608279 40.403983 29.64847 39.009766 28.380859 C 38.296063 27.732312 37.805404 27.275382 37.589844 27.001953 C 37.374283 26.728525 37.422661 26.812569 37.443359 26.716797 C 37.484759 26.525252 38.359684 25.348093 40.095703 23.083984 A 1.0001 1.0001 0 0 0 40.097656 23.083984 C 41.164987 21.690681 41.908079 20.561242 42.382812 19.628906 C 42.857548 18.69657 43.165712 17.974996 42.933594 17.111328 A 1.0001 1.0001 0 0 0 42.931641 17.109375 C 42.833541 16.746816 42.56928 16.420417 42.298828 16.242188 C 42.028376 16.063958 41.767698 15.992879 41.527344 15.947266 C 41.046635 15.856036 40.602719 15.871094 40.181641 15.871094 C 39.306355 15.871094 35.400004 15.902344 35.066406 15.902344 C 34.684574 15.902344 34.180899 16.038187 33.902344 16.201172 C 33.27867 16.566304 33.074219 17.076172 33.074219 17.076172 A 1.0001 1.0001 0 0 0 33.019531 17.195312 C 33.019531 17.195312 32.224924 19.254439 31.208984 20.941406 A 1.0001 1.0001 0 0 0 31.207031 20.943359 C 30.115302 22.759391 29.366726 23.65715 28.949219 24.035156 C 28.908279 23.927775 28.874532 23.937326 28.851562 23.669922 C 28.807923 23.1619 28.855469 22.481092 28.855469 21.832031 C 28.855469 20.049226 29.008451 18.801462 28.927734 17.732422 C 28.887374 17.197902 28.783693 16.662248 28.443359 16.183594 C 28.103026 15.704939 27.55008 15.400673 26.978516 15.265625 C 26.412691 15.13207 25.832962 15.020243 24.373047 15.005859 C 23.913059 15.001324 23.469026 14.993817 23.042969 14.994141 z M 24.353516 17.005859 C 25.7356 17.019479 25.975356 17.082488 26.519531 17.210938 C 26.785966 17.273888 26.790099 17.309498 26.814453 17.34375 C 26.838803 17.378 26.906703 17.526708 26.933594 17.882812 C 26.987374 18.595023 26.855469 19.945837 26.855469 21.832031 C 26.855469 22.357971 26.795025 23.092568 26.859375 23.841797 C 26.923735 24.591025 27.121889 25.517562 27.970703 26.054688 C 28.273578 26.246319 28.750074 26.325594 29.148438 26.222656 C 29.5468 26.119718 29.88156 25.903656 30.234375 25.591797 C 30.939759 24.968295 31.758192 23.910121 32.921875 21.974609 L 32.921875 21.972656 C 34.03376 20.125768 34.785937 18.149782 34.832031 18.029297 C 34.832031 18.029297 34.985781 17.884602 34.912109 17.927734 C 34.949474 17.905872 34.945468 17.900967 34.958984 17.888672 C 34.980453 17.895137 34.996399 17.902344 35.066406 17.902344 C 35.506808 17.902344 39.354926 17.871094 40.181641 17.871094 C 40.499472 17.871094 40.706082 17.886794 40.902344 17.902344 C 40.874974 18.013333 40.890124 18.154 40.601562 18.720703 C 40.217298 19.475367 39.531435 20.53349 38.509766 21.867188 C 36.813784 24.079079 35.783384 24.929466 35.488281 26.294922 C 35.34073 26.97765 35.612779 27.724288 36.019531 28.240234 C 36.426283 28.756181 36.955718 29.215875 37.666016 29.861328 C 38.991798 31.066718 39.772745 31.945019 40.224609 32.521484 C 40.450542 32.809717 40.593403 33.022488 40.683594 33.166016 C 40.773784 33.309544 40.767324 33.314246 40.863281 33.470703 A 1.0001 1.0001 0 0 0 40.863281 33.472656 C 41.036145 33.7531 41.00126 33.782753 41.003906 33.757812 C 40.841314 33.849182 40.40625 33.921875 40.40625 33.921875 L 35.910156 33.982422 A 1.0001 1.0001 0 0 0 35.734375 34.001953 C 35.734375 34.001953 35.695405 34.021369 35.423828 33.980469 C 35.152247 33.939559 34.737266 33.824157 34.220703 33.476562 A 1.0001 1.0001 0 0 0 34.21875 33.476562 C 33.581733 33.049135 32.758537 32.070892 31.955078 31.197266 C 31.553348 30.760452 31.153257 30.347806 30.677734 30.021484 C 30.202212 29.695162 29.535372 29.411193 28.820312 29.630859 L 28.820312 29.628906 C 27.97916 29.88655 27.407078 30.586373 27.148438 31.275391 C 26.935658 31.842231 26.914611 32.4206 26.896484 32.988281 C 26.831414 33.000351 26.864403 33.001953 26.679688 33.001953 L 24.646484 33.001953 C 21.932854 33.001953 19.713252 32.980593 16.941406 30.015625 C 13.128792 25.938054 9.5499242 18.49901 9.2226562 17.814453 L 13.832031 17.8125 C 13.894771 17.83338 14.11696 17.90562 14.177734 17.949219 C 14.101034 17.894309 14.255859 18.078125 14.255859 18.078125 C 14.256835 18.080525 15.054921 20.072661 16.146484 21.919922 C 17.180237 23.668293 17.934712 24.758571 18.638672 25.457031 C 18.990652 25.806261 19.337767 26.074178 19.777344 26.220703 C 20.216921 26.367229 20.763723 26.315273 21.144531 26.111328 C 21.903503 25.705461 22.04183 25.059619 22.179688 24.474609 C 22.317723 23.888839 22.373705 23.255339 22.400391 22.646484 C 22.452331 21.461298 22.377057 20.426752 22.373047 20.369141 C 22.373254 20.351931 22.38145 19.921501 22.3125 19.378906 C 22.24222 18.825584 22.152129 18.150871 21.669922 17.509766 C 21.572812 17.380048 21.452034 17.364614 21.345703 17.263672 C 22.039855 17.121346 22.920264 16.991731 24.353516 17.005859 z M 9 17.386719 C 9 17.386719 9.0032663 17.386826 9.0039062 17.390625 C 9.0039138 17.39067 9.0019331 17.394431 9.0019531 17.394531 A 1.0001 1.0001 0 0 0 9 17.386719 z" font-weight="400" font-family="sans-serif" white-space="normal" clip-rule="evenodd" overflow="visible"/>
</svg>